Coordinates
version=1
nRows=37
nColumns=19
inDegrees=yes

Units are S.I. units (second, meters, Newtons, ...)
If the header above contains a line with 'inDegrees', this indicates whether rotational values are in degrees (yes) or radians (no).

endheader
time	pelvis_tilt	pelvis_list	pelvis_rotation	pelvis_tx	pelvis_ty	pelvis_tz	hip_flexion_r	hip_adduction_r	hip_rotation_r	knee_angle_r	knee_angle_r_beta	ankle_angle_r	hip_flexion_l	hip_adduction_l	hip_rotation_l	knee_angle_l	knee_angle_l_beta	ankle_angle_l
     12.96666667	    -10.82341699	      4.94170084	      4.61545933	      2.22243563	      1.07146735	      1.03132582	     -2.40658553	    -13.61757839	    -14.99837678	     69.28956211	      1.20933100	    -26.36585282	     29.05503567	      8.17367400	    -10.07098454	      8.88055010	      0.15499484	     -1.77271159
     12.97333333	    -10.98579640	      5.26821325	      4.80970389	      2.22092163	      1.06624938	      1.03128371	     -0.63947019	    -13.93912393	    -13.90204140	     73.06546937	      1.27523301	    -26.82573835	     29.88509653	      8.30810365	    -10.45923468	     11.87793576	      0.20730909	     -1.20815783
     12.98000000	    -11.21366257	      5.53986383	      5.00349528	      2.21921384	      1.06063817	      1.03141978	      1.28058912	    -14.18788121	    -12.83677204	     76.78213959	      1.34010114	    -27.16423444	     30.90971564	      8.32286396	    -10.89737609	     15.32146250	      0.26740997	     -0.32886013
     12.98666667	    -11.50715325	      5.72556796	      5.23065744	      2.21738419	      1.05470262	      1.03166625	      3.33614939	    -14.31220263	    -11.81266347	     80.40027280	      1.40324948	    -27.35524542	     32.07410325	      8.22714350	    -11.28284340	     19.06068920	      0.33267178	      0.88675588
     12.99333333	    -11.79747621	      5.81648716	      5.40684080	      2.21541350	      1.04866380	      1.03208581	      5.47700845	    -14.31177357	    -10.78087339	     83.89227138	      1.46419635	    -27.42530147	     33.22875982	      8.00268452	    -11.58534145	     22.90733110	      0.39980835	      2.38870123
     13.00000000	    -12.16286826	      5.82459317	      5.57817882	      2.21330734	      1.04250988	      1.03253271	      7.78499020	    -14.23544778	     -9.78937392	     87.26566895	      1.52307325	    -27.39833818	     34.38248746	      7.73060860	    -11.66769380	     26.67771390	      0.46561394	      4.15867119
     13.00666667	    -12.58017357	      5.77007000	      5.71439280	      2.21107519	      1.03643378	      1.03295873	     10.24170271	    -14.09425947	     -8.79955535	     90.48816750	      1.57931646	    -27.29757606	     35.45618994	      7.45096225	    -11.55314617	     30.24031888	      0.52779313	      6.13867701
     13.01333333	    -12.89570354	      5.62709747	      5.74117029	      2.20868499	      1.03080716	      1.03349479	     12.71335417	    -13.79780083	     -7.74366004	     93.51493563	      1.63214353	    -27.20200112	     36.27319312	      7.08142550	    -11.34659952	     33.54680175	      0.58550214	      8.29656529
     13.02000000	    -13.44431387	      5.49322441	      5.77643129	      2.20616226	      1.02523597	      1.03387013	     15.52174945	    -13.55420385	     -6.71319840	     96.38417812	      1.68222125	    -27.06124692	     37.11351503	      6.83129481	    -10.97334581	     36.44489475	      0.63608341	     10.51341096
     13.02666667	    -13.82979561	      5.33850974	      5.64903621	      2.20364373	      1.02046640	      1.03432471	     18.26028093	    -13.21682569	     -5.58928466	     98.98956456	      1.72769383	    -26.93272123	     37.54325503	      6.50540257	    -10.68279046	     38.93351285	      0.67951799	     12.71328528
     13.03333333	    -14.40888740	      5.18698508	      5.52415693	      2.20105381	      1.01604875	      1.03460102	     21.27725965	    -12.89633664	     -4.48972071	    101.36289591	      1.76911627	    -26.79549689	     37.91808625	      6.28089438	    -10.27782278	     40.93885478	      0.71451781	     14.87487946
     13.04000000	    -14.22517327	      5.22143761	      5.33636797	      2.19897284	      1.01349382	      1.03481525	     23.38324401	    -12.73867037	     -3.48299680	    103.31435049	      1.80317558	    -26.57742765	     37.09889848	      6.19910097	     -9.97940431	     42.33279906	      0.73884673	     17.01479237
     13.04666667	    -15.01270067	      5.05324662	      4.82328921	      2.19639043	      1.01019908	      1.03553664	     26.86660164	    -12.12520928	     -2.06487376	    105.15599076	      1.83531827	    -26.49954423	     37.20585741	      5.73939571	     -9.99844990	     43.48512465	      0.75895860	     18.73518861
     13.05333333	    -15.18698802	      5.00174970	      4.45371793	      2.19442690	      1.00861732	      1.03580834	     29.46518419	    -11.73598729	     -1.00260010	    106.51426597	      1.85902464	    -26.24327991	     36.31286104	      5.52778136	     -9.86519449	     44.06443250	      0.76906943	     20.37457448
     13.06000000	    -15.25471896	      4.96788625	      4.05186416	      2.19295107	      1.00801990	      1.03601602	     31.85899639	    -11.34004832	     -0.03111810	    107.47277063	      1.87575370	    -25.93967466	     35.03872822	      5.33338967	     -9.80686600	     44.20039647	      0.77144245	     21.74717220
     13.06666667	    -15.32930571	      4.95146060	      3.57556041	      2.19164065	      1.00816963	      1.03632880	     34.23841977	    -10.87897326	      0.91789620	    108.12633662	      1.88716058	    -25.56082274	     33.53428519	      5.12128160	     -9.90539158	     43.89762306	      0.76615806	     22.82463207
     13.07333333	    -15.31377808	      4.72248042	      3.37117683	      2.19088942	      1.00929550	      1.03610957	     36.23386696	    -10.41129244	      1.32952992	    108.28952465	      1.89000875	    -25.06711825	     31.77542981	      4.93292383	     -9.54979988	     43.30771989	      0.75586230	     23.58552583
     13.08000000	    -15.23236652	      4.92749009	      2.59534163	      2.19060132	      1.01112298	      1.03663479	     38.27428577	    -10.00789431	      2.39560261	    108.24456465	      1.88922405	    -24.48431390	     29.63350600	      4.79674568	    -10.22073774	     42.20689803	      0.73664934	     23.98169105
     13.08666667	    -14.88296536	      4.91352268	      2.14346896	      2.19091810	      1.01414491	      1.03659160	     39.67834091	     -9.67075996	      2.83541700	    107.72475509	      1.88015166	    -23.75823098	     27.05817113	      4.72141701	    -10.37168947	     40.79845488	      0.71206737	     24.06197918
     13.09333333	    -14.76031467	      4.85422170	      1.68230465	      2.19154528	      1.01740858	      1.03647526	     41.19982341	     -9.29777050	      3.17281339	    106.90482136	      1.86584112	    -22.97843347	     24.61859965	      4.64287043	    -10.54484069	     39.17017399	      0.68364850	     23.74491767
     13.10000000	    -14.37001847	      4.69090232	      1.32571464	      2.19276107	      1.02171337	      1.03617236	     42.16450251	     -8.97386235	      3.17736557	    105.69417337	      1.84471133	    -22.06944991	     21.75280541	      4.54768519	    -10.58122149	     37.25583684	      0.65023702	     23.03113686
     13.10666667	    -14.34121934	      4.54968969	      0.96391131	      2.19411902	      1.02590569	      1.03581322	     43.42289310	     -8.68358118	      3.14240167	    104.25990237	      1.81967857	    -21.16202653	     19.22698137	      4.51283909	    -10.63795280	     35.19053440	      0.61419069	     21.91413901
     13.11333333	    -13.98355178	      4.22754566	      0.68514517	      2.19604119	      1.03101512	      1.03528653	     44.05077645	     -8.39098671	      2.74120445	    102.46900278	      1.78842148	    -20.17488587	     16.27651442	      4.33569803	    -10.57829843	     32.96213530	      0.57529779	     20.37762761
     13.12000000	    -13.92469895	      3.92399498	      0.41534531	      2.19805984	      1.03596640	      1.03470658	     44.89487799	     -8.14593757	      2.28368488	    100.47715010	      1.75365709	    -19.22074305	     13.64654152	      4.19724789	    -10.53674965	     30.64995539	      0.53494264	     18.38129344
     13.12666667	    -14.18765488	      3.57788692	      0.21441073	      2.20014204	      1.04064624	      1.03403662	     45.95797751	     -7.92640390	      1.68584222	     98.28212053	      1.71534660	    -18.35974817	     11.41527057	      4.03939958	    -10.38725405	     28.35540331	      0.49489515	     15.98524624
     13.13333333	    -13.96210175	      3.16374822	     -0.02484469	      2.20272298	      1.04621108	      1.03328741	     46.26881883	     -7.72611986	      0.90710387	     95.80357283	      1.67208778	    -17.41855017	      8.59244782	      3.82068915	    -10.28371519	     25.84992781	      0.45116635	     13.23118679
     13.14000000	    -13.96848646	      2.63193486	     -0.20814215	      2.20527420	      1.05148743	      1.03252395	     46.68908542	     -7.46803932	     -0.06133607	     93.12490180	      1.62533615	    -16.54212726	      6.15951063	      3.44589784	    -10.18511654	     23.52845280	      0.41064897	     10.11963283
     13.14666667	    -14.52070171	      2.08763249	     -0.36273840	      2.20764751	      1.05603350	      1.03182409	     47.61597291	     -7.18876410	     -1.09574538	     90.28714769	      1.57580800	    -15.92604858	      4.47653204	      3.02164005	    -10.09429192	     21.40985465	      0.37367246	      6.74477479
     13.15333333	    -14.19599577	      1.54511334	     -0.56237182	      2.21050707	      1.06168826	      1.03100222	     47.39157158	     -6.99268646	     -2.25550173	     87.22079856	      1.52229011	    -15.17185717	      1.77354728	      2.63078908	    -10.05461428	     19.03799787	      0.33227575	      3.00029559
     13.16000000	    -14.33360875	      0.96466759	     -0.73101500	      2.21319247	      1.06657591	      1.03027687	     47.57282110	     -6.76670303	     -3.53531693	     83.99996802	      1.46607601	    -14.64041607	     -0.21832073	      2.13263363	    -10.15716475	     16.99996805	      0.29670542	     -0.74142162
     13.16666667	    -14.47242380	      0.36547047	     -0.88768874	      2.21585284	      1.07128613	      1.02959291	     47.62369520	     -6.53787307	     -4.93641698	     80.60166158	      1.40676438	    -14.18154542	     -2.05337622	      1.57298386	    -10.38973529	     15.18839874	      0.26508757	     -4.47733719
     13.17333333	    -14.59857974	     -0.20957386	     -1.02773010	      2.21844169	      1.07573831	      1.02901229	     47.55100190	     -6.34411886	     -6.44191386	     77.05759387	      1.34490873	    -13.79215970	     -3.73341275	      0.98809784	    -10.80523758	     13.64372663	      0.23812795	     -8.07997407
     13.18000000	    -15.22339399	     -0.71308641	     -1.20243953	      2.22085322	      1.07927558	      1.02866279	     47.93607581	     -6.14124871	     -7.96578455	     73.36673415	      1.28049107	    -13.60188498	     -4.66039398	      0.40375617	    -11.47865032	     12.50500462	      0.21825350	    -11.29671733
     13.18666667	    -14.81141861	     -1.25947535	     -1.28106100	      2.22335083	      1.08382229	      1.02827154	     47.02894155	     -6.01176264	     -9.78232926	     69.52603703	      1.21345826	    -13.15860253	     -6.56728044	     -0.24999787	    -12.32325251	     11.59575078	      0.20238403	    -14.34380682
     13.19333333	    -14.93038017	     -1.67705169	     -1.38649169	      2.22559643	      1.08731454	      1.02821541	     46.64095508	     -5.88693221	    -11.58265355	     65.57744211	      1.14454228	    -12.84602704	     -7.64747752	     -0.86669680	    -13.47551338	     11.22963814	      0.19599416	    -16.77635561
     13.20000000	    -14.90617125	     -2.08660414	     -1.48975993	      2.22768316	      1.09066994	      1.02852050	     45.98654744	     -5.67316765	    -13.47671480	     61.47551111	      1.07295008	    -12.52926741	     -8.70384468	     -1.54821551	    -14.79884526	     11.25470612	      0.19643168	    -18.69593378
     13.20666667	    -14.86422190	     -2.42073204	     -1.60393693	      2.22959090	      1.09360215	      1.02919228	     45.25152431	     -5.40662480	    -15.38538086	     57.29115268	      0.99991925	    -12.14160388	     -9.58484949	     -2.24852277	    -16.36710876	     11.75405630	      0.20514698	    -20.01311613
